# xmcd CD database file
#
# Track frame offsets:
#	150
#	15272
#	30795
#	43205
#	58056
#	72194
#	86548
#	98905
#	122165
#	136460
#	150704
#	165822
#	179537
#	196559
#
# Disc length: 2787 seconds
#
# Revision: 0
# Processed by: cddbd v1.5.2PL0 Copyright (c) Steve Scherf et al.
# Submitted via: CDex 1.78
#
DISCID=a70ae10e
DTITLE=Toni West - Lost in my Memories
DYEAR=2015
DGENRE=Country
TTITLE0=Lost In My Memories
TTITLE1=Words People Say
TTITLE2=Ah Honey
TTITLE3=I Painted It Blue
TTITLE4=Neon Lights
TTITLE5=All Of You
TTITLE6=Lay It Down
TTITLE7=Longer Than Time
TTITLE8=Old Photographs
TTITLE9=The Tears Aren't So Far Away
TTITLE10=Tired Of Waitin' For You
TTITLE11=How Could This Happen
TTITLE12=Cold Cold Kisses
TTITLE13=Sea Sand and Sun
EXTD=YEAR: 2015
EXTT0=
EXTT1=
EXTT2=
EXTT3=
EXTT4=
EXTT5=
EXTT6=
EXTT7=
EXTT8=
EXTT9=
EXTT10=
EXTT11=
EXTT12=
EXTT13=
PLAYORDER=
